<?xml version="1.0" encoding="UTF-8"?>
<!DOCTYPE svg PUBLIC "-//W3C//DTD SVG 1.1//EN" "http://www.w3.org/Graphics/SVG/1.1/DTD/svg11.dtd">
<svg xmlns="http://www.w3.org/2000/svg" version="1.1" width="794px" height="282px" style="shape-rendering:geometricPrecision; text-rendering:geometricPrecision; image-rendering:optimizeQuality; fill-rule:evenodd; clip-rule:evenodd" xmlns:xlink="http://www.w3.org/1999/xlink">
<g><path style="opacity:1" fill="#fefefe" d="M -0.5,-0.5 C 264.167,-0.5 528.833,-0.5 793.5,-0.5C 793.5,93.5 793.5,187.5 793.5,281.5C 528.833,281.5 264.167,281.5 -0.5,281.5C -0.5,187.5 -0.5,93.5 -0.5,-0.5 Z"/></g>
<g><path style="opacity:1" fill="#fecca0" d="M 378.5,15.5 C 378.5,16.5 378.5,17.5 378.5,18.5C 373.975,19.4289 369.975,21.4289 366.5,24.5C 363.709,21.7223 362.376,18.389 362.5,14.5C 364.282,12.3131 366.448,11.9797 369,13.5C 369.307,10.1238 371.14,8.79043 374.5,9.5C 374.5,11.1667 374.5,12.8333 374.5,14.5C 376.099,14.2322 377.432,14.5655 378.5,15.5 Z"/></g>
<g><path style="opacity:1" fill="#fee1bf" d="M 497.5,57.5 C 494.545,59.9401 491.211,61.7735 487.5,63C 480.816,63.5464 474.149,63.3797 467.5,62.5C 465.933,61.3192 465.099,59.6526 465,57.5C 461.73,53.6412 458.397,53.6412 455,57.5C 452.88,56.5411 450.713,56.3744 448.5,57C 447.855,59.3017 447.522,61.4683 447.5,63.5C 439.427,63.5864 431.927,61.5864 425,57.5C 423.062,60.1059 420.562,61.9392 417.5,63C 410.621,65.8015 403.621,67.6349 396.5,68.5C 395.517,72.2984 395.183,76.2984 395.5,80.5C 394.521,77.3752 394.187,74.0419 394.5,70.5C 387.407,70.3409 380.407,71.0076 373.5,72.5C 367.189,73.6073 360.856,74.6073 354.5,75.5C 355.347,72.8405 355.847,70.1738 356,67.5C 352.567,65.8768 349.067,64.5434 345.5,63.5C 345.5,65.5 345.5,67.5 345.5,69.5C 341.5,68.8333 339.833,70.5 340.5,74.5C 331.63,77.9558 322.463,80.2892 313,81.5C 307.284,82.0554 302.784,80.0554 299.5,75.5C 300.23,74.2876 301.23,73.2876 302.5,72.5C 295.906,63.9909 297.573,57.9909 307.5,54.5C 306.582,59.4948 308.582,61.8281 313.5,61.5C 313.353,66.5408 315.519,68.2074 320,66.5C 320.816,64.3746 321.983,62.5413 323.5,61C 322.815,58.2048 322.315,55.3715 322,52.5C 319.955,51.1131 317.788,49.9464 315.5,49C 313.866,48.5065 312.199,48.3398 310.5,48.5C 314.962,34.5865 324.129,30.2531 338,35.5C 339.825,35.0566 341.658,34.7233 343.5,34.5C 341.691,26.8432 344.024,21.0099 350.5,17C 354.042,16.1488 357.375,16.6488 360.5,18.5C 361.172,17.0508 361.839,15.7175 362.5,14.5C 362.376,18.389 363.709,21.7223 366.5,24.5C 369.975,21.4289 373.975,19.4289 378.5,18.5C 378.5,17.5 378.5,16.5 378.5,15.5C 379.404,16.209 379.737,17.209 379.5,18.5C 387.81,17.4058 394.643,20.0725 400,26.5C 403.028,20.2623 407.528,15.429 413.5,12C 426.968,9.06087 435.301,14.2275 438.5,27.5C 447.839,23.7138 456.172,25.2138 463.5,32C 465.433,32.2511 467.266,32.7511 469,33.5C 470.133,31.7888 471.633,31.2888 473.5,32C 474.595,33.6753 476.095,34.842 478,35.5C 478.202,37.2556 478.702,38.9223 479.5,40.5C 484.853,43.1913 487.187,47.5246 486.5,53.5C 491.094,52.6572 494.761,53.9906 497.5,57.5 Z"/></g>
<g><path style="opacity:1" fill="#fecda0" d="M 417.5,21.5 C 420.276,22.1142 422.943,22.2809 425.5,22C 426.131,25.3029 427.131,28.4695 428.5,31.5C 428.392,32.4419 428.059,33.2753 427.5,34C 424.898,35.1396 422.231,35.9729 419.5,36.5C 419.5,35.1667 419.5,33.8333 419.5,32.5C 416.757,32.9228 415.424,31.7561 415.5,29C 416.86,26.7298 417.527,24.2298 417.5,21.5 Z"/></g>
<g><path style="opacity:1" fill="#fecda1" d="M 389.5,42.5 C 392.049,43.5091 394.715,44.3425 397.5,45C 399.072,48.1897 398.239,50.6897 395,52.5C 394.907,55.0075 394.074,57.1741 392.5,59C 389.077,58.9107 385.744,58.9107 382.5,59C 381.422,58.3261 380.755,57.3261 380.5,56C 381.093,52.8486 381.593,49.682 382,46.5C 384.627,45.2318 387.127,43.8985 389.5,42.5 Z"/></g>
<g><path style="opacity:1" fill="#fecca0" d="M 310.5,48.5 C 312.199,48.3398 313.866,48.5065 315.5,49C 317.788,49.9464 319.955,51.1131 322,52.5C 322.315,55.3715 322.815,58.2048 323.5,61C 321.983,62.5413 320.816,64.3746 320,66.5C 315.519,68.2074 313.353,66.5408 313.5,61.5C 308.582,61.8281 306.582,59.4948 307.5,54.5C 309.772,54.0886 310.105,52.922 308.5,51C 308.639,49.699 309.305,48.8656 310.5,48.5 Z"/></g>
<g><path style="opacity:1" fill="#fec89d" d="M 467.5,62.5 C 467.714,64.1439 467.38,65.6439 466.5,67C 463.518,67.498 460.518,67.6646 457.5,67.5C 451.5,67.5 445.5,67.5 439.5,67.5C 442.528,66.9324 445.195,65.599 447.5,63.5C 447.522,61.4683 447.855,59.3017 448.5,57C 450.713,56.3744 452.88,56.5411 455,57.5C 458.397,53.6412 461.73,53.6412 465,57.5C 465.099,59.6526 465.933,61.3192 467.5,62.5 Z"/></g>
<g><path style="opacity:1" fill="#ebc9ab" d="M 447.5,63.5 C 445.195,65.599 442.528,66.9324 439.5,67.5C 430.5,67.5 421.5,67.5 412.5,67.5C 410.901,67.2322 409.568,67.5655 408.5,68.5C 404.5,68.5 400.5,68.5 396.5,68.5C 403.621,67.6349 410.621,65.8015 417.5,63C 420.562,61.9392 423.062,60.1059 425,57.5C 431.927,61.5864 439.427,63.5864 447.5,63.5 Z"/></g>
<g><path style="opacity:1" fill="#ebc9ad" d="M 497.5,57.5 C 500.481,65.8865 497.648,71.8865 489,75.5C 488.79,77.0581 488.29,78.3915 487.5,79.5C 487.799,77.396 487.466,75.396 486.5,73.5C 484.12,72.2064 481.62,71.2064 479,70.5C 477.989,71.0556 477.156,71.7222 476.5,72.5C 476.586,71.5041 476.252,70.6708 475.5,70C 469.555,68.8379 463.555,68.3379 457.5,68.5C 457.5,68.1667 457.5,67.8333 457.5,67.5C 460.518,67.6646 463.518,67.498 466.5,67C 467.38,65.6439 467.714,64.1439 467.5,62.5C 474.149,63.3797 480.816,63.5464 487.5,63C 491.211,61.7735 494.545,59.9401 497.5,57.5 Z"/></g>
<g><path style="opacity:1" fill="#fecb9f" d="M 354.5,75.5 C 352.401,76.6118 350.067,77.2785 347.5,77.5C 344.369,78.0922 342.036,77.0922 340.5,74.5C 339.833,70.5 341.5,68.8333 345.5,69.5C 345.5,67.5 345.5,65.5 345.5,63.5C 349.067,64.5434 352.567,65.8768 356,67.5C 355.847,70.1738 355.347,72.8405 354.5,75.5 Z"/></g>
<g><path style="opacity:1" fill="#fefcfc" d="M 412.5,67.5 C 421.5,67.5 430.5,67.5 439.5,67.5C 437.702,84.8089 436.036,102.142 434.5,119.5C 427.349,114.752 419.682,111.419 411.5,109.5C 411.5,103.833 411.5,98.1667 411.5,92.5C 412.493,84.3501 412.826,76.0168 412.5,67.5 Z"/></g>
<g><path style="opacity:1" fill="#fe0e06" d="M 439.5,67.5 C 445.5,67.5 451.5,67.5 457.5,67.5C 457.5,67.8333 457.5,68.1667 457.5,68.5C 454.004,90.4701 450.67,112.47 447.5,134.5C 443.569,129.23 439.236,124.23 434.5,119.5C 436.036,102.142 437.702,84.8089 439.5,67.5 Z"/></g>
<g><path style="opacity:1" fill="#fe0602" d="M 396.5,68.5 C 400.5,68.5 404.5,68.5 408.5,68.5C 409.5,68.5 410.5,68.5 411.5,68.5C 411.5,76.5 411.5,84.5 411.5,92.5C 411.5,98.1667 411.5,103.833 411.5,109.5C 406.5,109.5 401.5,109.5 396.5,109.5C 396.532,99.8174 396.199,90.1507 395.5,80.5C 395.183,76.2984 395.517,72.2984 396.5,68.5 Z"/></g>
<g><path style="opacity:1" fill="#fefafa" d="M 457.5,68.5 C 463.555,68.3379 469.555,68.8379 475.5,70C 476.252,70.6708 476.586,71.5041 476.5,72.5C 466.34,127.471 456.34,182.471 446.5,237.5C 445.833,238.833 445.167,240.167 444.5,241.5C 440.548,242.272 436.548,242.605 432.5,242.5C 432.5,242.167 432.5,241.833 432.5,241.5C 434.5,226.17 436.5,210.837 438.5,195.5C 454.463,177.093 457.463,156.759 447.5,134.5C 450.67,112.47 454.004,90.4701 457.5,68.5 Z"/></g>
<g><path style="opacity:1" fill="#fffbfa" d="M 395.5,80.5 C 396.199,90.1507 396.532,99.8174 396.5,109.5C 389.266,110.245 382.599,112.578 376.5,116.5C 375.981,101.789 374.981,87.1219 373.5,72.5C 380.407,71.0076 387.407,70.3409 394.5,70.5C 394.187,74.0419 394.521,77.3752 395.5,80.5 Z"/></g>
<g><path style="opacity:1" fill="#fe0e07" d="M 487.5,79.5 C 479.741,133.155 470.408,186.488 459.5,239.5C 455.167,240.167 450.833,240.833 446.5,241.5C 446.5,240.167 446.5,238.833 446.5,237.5C 456.34,182.471 466.34,127.471 476.5,72.5C 477.156,71.7222 477.989,71.0556 479,70.5C 481.62,71.2064 484.12,72.2064 486.5,73.5C 487.466,75.396 487.799,77.396 487.5,79.5 Z"/></g>
<g><path style="opacity:1" fill="#fe1007" d="M 373.5,72.5 C 374.981,87.1219 375.981,101.789 376.5,116.5C 369.026,122.432 362.693,129.432 357.5,137.5C 354.642,117.739 351.309,98.0728 347.5,78.5C 347.5,78.1667 347.5,77.8333 347.5,77.5C 350.067,77.2785 352.401,76.6118 354.5,75.5C 360.856,74.6073 367.189,73.6073 373.5,72.5 Z"/></g>
<g><path style="opacity:1" fill="#ebcaad" d="M 340.5,74.5 C 342.036,77.0922 344.369,78.0922 347.5,77.5C 347.5,77.8333 347.5,78.1667 347.5,78.5C 338.952,79.2999 330.952,81.6332 323.5,85.5C 321.901,85.2322 320.568,85.5655 319.5,86.5C 315.638,87.4281 311.971,88.9281 308.5,91C 307.748,91.6708 307.414,92.5041 307.5,93.5C 297.722,90.6139 295.056,84.6139 299.5,75.5C 302.784,80.0554 307.284,82.0554 313,81.5C 322.463,80.2892 331.63,77.9558 340.5,74.5 Z"/></g>
<g><path style="opacity:1" fill="#fd4130" d="M 150.5,87.5 C 151.659,89.2503 153.326,90.2503 155.5,90.5C 174.926,104.622 186.592,123.622 190.5,147.5C 192.719,186.402 176.385,214.236 141.5,231C 101.302,244.431 68.6358,234.265 43.5,200.5C 30.2931,177.253 27.9598,152.92 36.5,127.5C 48.071,102.193 67.4044,86.0266 94.5,79C 114.115,75.594 132.781,78.4273 150.5,87.5 Z"/></g>
<g><path style="opacity:1" fill="#fefbfb" d="M 347.5,78.5 C 351.309,98.0728 354.642,117.739 357.5,137.5C 349.529,158.589 352.862,177.589 367.5,194.5C 370.048,208.455 372.381,222.455 374.5,236.5C 374.53,237.497 374.03,238.164 373,238.5C 370.755,237.863 368.588,237.03 366.5,236C 364.197,231.575 362.197,227.075 360.5,222.5C 354.926,203.67 349.593,184.67 344.5,165.5C 337.804,138.716 330.804,112.049 323.5,85.5C 330.952,81.6332 338.952,79.2999 347.5,78.5 Z"/></g>
<g><path style="opacity:1" fill="#fc2317" d="M 323.5,85.5 C 330.804,112.049 337.804,138.716 344.5,165.5C 343.069,165.119 342.236,164.119 342,162.5C 334.386,137.163 326.886,111.83 319.5,86.5C 320.568,85.5655 321.901,85.2322 323.5,85.5 Z"/></g>
<g><path style="opacity:1" fill="#f8aca9" d="M 408.5,68.5 C 409.568,67.5655 410.901,67.2322 412.5,67.5C 412.826,76.0168 412.493,84.3501 411.5,92.5C 411.5,84.5 411.5,76.5 411.5,68.5C 410.5,68.5 409.5,68.5 408.5,68.5 Z"/></g>
<g><path style="opacity:1" fill="#775952" d="M 150.5,87.5 C 152.674,87.7497 154.341,88.7497 155.5,90.5C 153.326,90.2503 151.659,89.2503 150.5,87.5 Z"/></g>
<g><path style="opacity:1" fill="#f6ebe9" d="M 125.5,125.5 C 130.688,108.703 124.688,98.703 107.5,95.5C 105.833,95.6667 104.167,95.8333 102.5,96C 100.114,97.1932 97.7802,98.3599 95.5,99.5C 100.999,92.9342 107.999,90.7675 116.5,93C 128.24,97.6461 132.74,106.146 130,118.5C 128.974,121.239 127.474,123.572 125.5,125.5 Z"/></g>
<g><path style="opacity:1" fill="#555555" d="M 190.5,93.5 C 191.675,93.281 192.675,93.6143 193.5,94.5C 189.135,100.061 188.135,99.7281 190.5,93.5 Z"/></g>
<g><path style="opacity:1" fill="#4c4c4c" d="M 178.5,93.5 C 180.912,93.244 182.579,94.244 183.5,96.5C 180.688,97.7195 179.021,96.7195 178.5,93.5 Z"/></g>
<g><path style="opacity:1" fill="#403e3e" d="M 125.5,125.5 C 122.6,128.786 118.933,130.786 114.5,131.5C 126.585,122.894 127.585,113.061 117.5,102C 106.374,96.6773 97.7073,99.1773 91.5,109.5C 91.7312,105.707 93.0645,102.374 95.5,99.5C 97.7802,98.3599 100.114,97.1932 102.5,96C 104.167,95.8333 105.833,95.6667 107.5,95.5C 124.688,98.703 130.688,108.703 125.5,125.5 Z"/></g>
<g><path style="opacity:1" fill="#fbfbfb" d="M 114.5,131.5 C 99.0363,132.37 91.3697,125.037 91.5,109.5C 97.7073,99.1773 106.374,96.6773 117.5,102C 127.585,113.061 126.585,122.894 114.5,131.5 Z"/></g>
<g><path style="opacity:1" fill="#505050" d="M 188.5,103.5 C 190.912,103.244 192.579,104.244 193.5,106.5C 190.688,107.719 189.021,106.719 188.5,103.5 Z"/></g>
<g><path style="opacity:1" fill="#505050" d="M 180.5,103.5 C 184.208,104.551 184.041,105.884 180,107.5C 179.5,107.167 179,106.833 178.5,106.5C 179.193,105.482 179.859,104.482 180.5,103.5 Z"/></g>
<g><path style="opacity:1" fill="#505050" d="M 34.5,106.5 C 37.047,108.29 36.7137,109.956 33.5,111.5C 32.3482,109.603 32.6815,107.936 34.5,106.5 Z"/></g>
<g><path style="opacity:1" fill="#fdcd51" d="M 396.5,109.5 C 401.5,109.5 406.5,109.5 411.5,109.5C 419.682,111.419 427.349,114.752 434.5,119.5C 439.236,124.23 443.569,129.23 447.5,134.5C 457.463,156.759 454.463,177.093 438.5,195.5C 434.772,198.559 430.772,201.226 426.5,203.5C 421.436,205.965 416.103,207.632 410.5,208.5C 409.833,208.5 409.5,208.833 409.5,209.5C 406.167,209.5 402.833,209.5 399.5,209.5C 394.356,208.672 389.356,207.338 384.5,205.5C 378.323,202.581 372.656,198.914 367.5,194.5C 352.862,177.589 349.529,158.589 357.5,137.5C 362.693,129.432 369.026,122.432 376.5,116.5C 382.599,112.578 389.266,110.245 396.5,109.5 Z"/></g>
<g><path style="opacity:1" fill="#dd0804" d="M 319.5,86.5 C 326.886,111.83 334.386,137.163 342,162.5C 342.236,164.119 343.069,165.119 344.5,165.5C 349.593,184.67 354.926,203.67 360.5,222.5C 362.515,231.892 364.848,241.226 367.5,250.5C 367.253,251.713 366.586,252.38 365.5,252.5C 360.134,251.91 356.3,249.244 354,244.5C 338.324,194.106 322.824,143.773 307.5,93.5C 307.414,92.5041 307.748,91.6708 308.5,91C 311.971,88.9281 315.638,87.4281 319.5,86.5 Z"/></g>
<g><path style="opacity:1" fill="#faf2f1" d="M 90.5,138.5 C 88.1245,127.636 81.2911,121.969 70,121.5C 61.1248,122.678 54.9582,127.345 51.5,135.5C 54.4554,117.857 64.4554,111.691 81.5,117C 89.6917,122.194 92.6917,129.36 90.5,138.5 Z"/></g>
<g><path style="opacity:1" fill="#474747" d="M 32.5,116.5 C 34.3841,116.712 35.7174,117.712 36.5,119.5C 33.5812,120.932 32.2479,119.932 32.5,116.5 Z"/></g>
<g><path style="opacity:1" fill="#dcb9b4" d="M 164.5,121.5 C 169.625,126.382 171.458,132.382 170,139.5C 168.667,142.167 167.333,144.833 166,147.5C 164.549,149.464 162.716,150.797 160.5,151.5C 169.525,142.529 170.859,132.529 164.5,121.5 Z"/></g>
<g><path style="opacity:1" fill="#2a261e" d="M 395.5,124.5 C 400.447,123.628 404.613,124.961 408,128.5C 408.667,130.167 408.667,131.833 408,133.5C 406.663,134.904 405.497,136.404 404.5,138C 405.62,139.737 406.62,141.571 407.5,143.5C 405.741,144.754 404.241,144.421 403,142.5C 400.499,137.494 397.499,132.827 394,128.5C 393.7,126.934 394.2,125.601 395.5,124.5 Z"/></g>
<g><path style="opacity:1" fill="#3e393a" d="M 90.5,138.5 C 91.6826,148.81 87.6826,156.144 78.5,160.5C 73.8969,161.383 69.2303,161.717 64.5,161.5C 53.8465,156.194 49.5132,147.527 51.5,135.5C 54.9582,127.345 61.1248,122.678 70,121.5C 81.2911,121.969 88.1245,127.636 90.5,138.5 Z"/></g>
<g><path style="opacity:1" fill="#fcfbfb" d="M 85.5,149.5 C 76.6482,155.863 67.6482,156.03 58.5,150C 57.2668,148.333 55.9335,146.833 54.5,145.5C 55.2245,127.967 63.8912,122.134 80.5,128C 87.672,133.911 89.3387,141.078 85.5,149.5 Z"/></g>
<g><path style="opacity:1" fill="#443d3d" d="M 164.5,121.5 C 170.859,132.529 169.525,142.529 160.5,151.5C 145.008,158.384 134.508,153.717 129,137.5C 128.217,125.943 133.383,118.443 144.5,115C 152.42,113.696 159.087,115.863 164.5,121.5 Z"/></g>
<g><path style="opacity:1" fill="#fbfbfb" d="M 144.5,117.5 C 160.767,117.738 167.267,125.738 164,141.5C 159.128,149.797 151.961,152.63 142.5,150C 133.752,145.455 130.585,138.288 133,128.5C 135.495,123.353 139.329,119.686 144.5,117.5 Z"/></g>
<g><path style="opacity:1" fill="#f0c657" d="M 398.5,128.5 C 400.167,128.5 401.833,128.5 403.5,128.5C 401.957,135.029 400.29,135.029 398.5,128.5 Z"/></g>
<g><path style="opacity:1" fill="#27241c" d="M 385.5,131.5 C 392.982,131.394 397.648,134.894 399.5,142C 399.362,148.147 396.362,150.48 390.5,149C 384.212,144.321 382.545,138.488 385.5,131.5 Z"/></g>
<g><path style="opacity:1" fill="#939393" d="M 709.5,178.5 C 709.5,177.833 709.167,177.5 708.5,177.5C 697.409,164.238 685.743,151.405 673.5,139C 671.466,137.994 669.3,137.494 667,137.5C 663.241,137.808 659.741,138.808 656.5,140.5C 656.872,136.957 658.872,134.79 662.5,134C 667.697,133.133 672.697,133.8 677.5,136C 700.502,149.499 723.168,163.499 745.5,178C 733.505,178.5 721.505,178.667 709.5,178.5 Z"/></g>
<g><path style="opacity:1" fill="#343434" d="M 747.5,177.5 C 741.239,178.793 734.739,179.46 728,179.5C 721.657,179.5 715.491,179.166 709.5,178.5C 721.505,178.667 733.505,178.5 745.5,178C 723.168,163.499 700.502,149.499 677.5,136C 672.697,133.8 667.697,133.133 662.5,134C 658.872,134.79 656.872,136.957 656.5,140.5C 659.741,138.808 663.241,137.808 667,137.5C 669.3,137.494 671.466,137.994 673.5,139C 685.743,151.405 697.409,164.238 708.5,177.5C 708.167,177.5 707.833,177.5 707.5,177.5C 707.167,177.5 706.833,177.5 706.5,177.5C 695.366,165.528 684.366,153.362 673.5,141C 668.455,137.372 663.788,137.705 659.5,142C 657.866,142.494 656.199,142.66 654.5,142.5C 653.946,136.553 656.613,133.053 662.5,132C 668.794,131.095 674.794,132.095 680.5,135C 703.236,148.692 725.569,162.858 747.5,177.5 Z"/></g>
<g><path style="opacity:1" fill="#edc353" d="M 386.5,135.5 C 389.849,136.259 392.682,137.926 395,140.5C 395.075,146.255 393.075,146.922 389,142.5C 387.589,140.35 386.755,138.016 386.5,135.5 Z"/></g>
<g><path style="opacity:1" fill="#28241c" d="M 370.5,137.5 C 379.335,136.997 382.668,140.997 380.5,149.5C 381.977,151.639 382.977,153.972 383.5,156.5C 378.654,154.497 374.82,151.164 372,146.5C 370.634,144.63 369.467,142.63 368.5,140.5C 369.193,139.482 369.859,138.482 370.5,137.5 Z"/></g>
<g><path style="opacity:1" fill="#e7be54" d="M 372.5,141.5 C 377,139.837 378.5,141.503 377,146.5C 375.483,144.76 373.983,143.094 372.5,141.5 Z"/></g>
<g><path style="opacity:1" fill="#27231c" d="M 429.5,149.5 C 432.642,149.799 434.809,151.466 436,154.5C 438.44,158.843 438.94,163.343 437.5,168C 434.361,167.841 431.361,167.174 428.5,166C 429.304,167.771 430.471,169.271 432,170.5C 432.749,171.635 432.583,172.635 431.5,173.5C 425.924,169.609 421.924,164.609 419.5,158.5C 423.669,159.223 427.669,160.556 431.5,162.5C 431.833,161.833 432.167,161.167 432.5,160.5C 430.612,157.063 429.612,153.396 429.5,149.5 Z"/></g>
<g><path style="opacity:1" fill="#2c271e" d="M 390.5,171.5 C 400.837,172.004 405.003,177.338 403,187.5C 398.227,195.47 393.56,195.47 389,187.5C 386.995,181.881 387.495,176.548 390.5,171.5 Z"/></g>
<g><path style="opacity:1" fill="#27241c" d="M 402.5,164.5 C 408.495,163.828 411.829,166.495 412.5,172.5C 416.856,172.256 420.856,173.256 424.5,175.5C 421.215,176.324 417.882,176.824 414.5,177C 417.857,178.512 419.857,181.012 420.5,184.5C 419.127,184.657 417.793,184.49 416.5,184C 411.333,178.833 406.167,173.667 401,168.5C 400.516,166.807 401.016,165.473 402.5,164.5 Z"/></g>
<g><path style="opacity:1" fill="#efc555" d="M 404.5,168.5 C 407.857,167.343 409.357,168.676 409,172.5C 407.629,170.959 406.129,169.625 404.5,168.5 Z"/></g>
<g><path style="opacity:1" fill="#474747" d="M 208.5,173.5 C 210.199,173.34 211.866,173.506 213.5,174C 214.995,177.841 213.661,179.174 209.5,178C 208.62,176.644 208.286,175.144 208.5,173.5 Z"/></g>
<g><path style="opacity:1" fill="#444444" d="M 218.5,173.5 C 222.138,172.737 223.638,174.07 223,177.5C 218.415,179.413 216.915,178.079 218.5,173.5 Z"/></g>
<g><path style="opacity:1" fill="#434343" d="M 226.5,175.5 C 230.138,174.737 231.638,176.07 231,179.5C 228.507,180.946 226.673,180.279 225.5,177.5C 225.863,176.817 226.196,176.15 226.5,175.5 Z"/></g>
<g><path style="opacity:1" fill="#2d281e" d="M 377.5,173.5 C 378.995,173.415 379.995,174.081 380.5,175.5C 374.068,183.273 375.735,188.273 385.5,190.5C 382.295,194.408 378.962,194.408 375.5,190.5C 372.321,184.271 372.987,178.604 377.5,173.5 Z"/></g>
<g><path style="opacity:1" fill="#434343" d="M 234.5,177.5 C 238.172,177.183 239.838,178.849 239.5,182.5C 234.973,183.138 233.306,181.471 234.5,177.5 Z"/></g>
<g><path style="opacity:1" fill="#2a2a2a" d="M 570.5,177.5 C 569.957,177.56 569.624,177.893 569.5,178.5C 592.5,178.833 615.5,179.167 638.5,179.5C 661.843,179.5 684.843,178.833 707.5,177.5C 707.833,177.5 708.167,177.5 708.5,177.5C 709.167,177.5 709.5,177.833 709.5,178.5C 715.491,179.166 721.657,179.5 728,179.5C 734.739,179.46 741.239,178.793 747.5,177.5C 750.838,178.423 753.338,180.423 755,183.5C 755.667,194.5 755.667,205.5 755,216.5C 754.241,218.635 752.741,219.968 750.5,220.5C 751.374,229.114 748.04,235.281 740.5,239C 712.5,239.667 684.5,239.667 656.5,239C 653.619,237.749 651.786,235.583 651,232.5C 649.876,226.791 648.542,221.125 647,215.5C 640.633,209.888 634.633,210.221 629,216.5C 627.666,222.508 626.332,228.508 625,234.5C 623.363,236.81 621.196,238.31 618.5,239C 590.833,239.667 563.167,239.667 535.5,239C 528.684,234.877 525.35,228.71 525.5,220.5C 524.186,219.687 523.019,218.687 522,217.5C 521.188,205.454 521.354,193.454 522.5,181.5C 546.833,166 571.167,150.5 595.5,135C 603.083,131.004 610.75,130.671 618.5,134C 624.409,139.057 623.743,141.724 616.5,142C 613.017,138.308 609.017,137.642 604.5,140C 592.59,152.072 581.257,164.572 570.5,177.5 Z"/></g>
<g><path style="opacity:1" fill="#757575" d="M 570.5,177.5 C 615.833,178.833 661.167,178.833 706.5,177.5C 706.833,177.5 707.167,177.5 707.5,177.5C 684.843,178.833 661.843,179.5 638.5,179.5C 615.5,179.167 592.5,178.833 569.5,178.5C 569.624,177.893 569.957,177.56 570.5,177.5 Z"/></g>
<g><path style="opacity:1" fill="#505050" d="M 531.5,177.5 C 542.988,178.495 554.655,178.828 566.5,178.5C 554.66,179.825 542.66,179.825 530.5,178.5C 530.624,177.893 530.957,177.56 531.5,177.5 Z"/></g>
<g><path style="opacity:1" fill="#939393" d="M 566.5,178.5 C 554.655,178.828 542.988,178.495 531.5,177.5C 552.472,164.344 573.472,151.178 594.5,138C 602.231,133.092 610.231,132.426 618.5,136C 620.312,137.627 620.479,139.127 619,140.5C 613.819,137.148 608.319,136.648 602.5,139C 590.634,152.362 578.634,165.529 566.5,178.5 Z"/></g>
<g><path style="opacity:1" fill="#414141" d="M 241.5,181.5 C 243.199,181.34 244.866,181.506 246.5,182C 248.167,185.333 247.167,186.667 243.5,186C 241.963,184.89 241.297,183.39 241.5,181.5 Z"/></g>
<g><path style="opacity:1" fill="#f8ca53" d="M 390.5,177.5 C 399.818,177.655 401.818,181.488 396.5,189C 395.216,189.684 394.049,189.517 393,188.5C 391.096,185.077 390.263,181.41 390.5,177.5 Z"/></g>
<g><path style="opacity:1" fill="#545454" d="M 528.5,180.5 C 601.5,180.5 674.5,180.5 747.5,180.5C 747.972,197.928 747.472,215.261 746,232.5C 744.363,234.81 742.196,236.31 739.5,237C 712.167,237.667 684.833,237.667 657.5,237C 655.333,236.167 653.833,234.667 653,232.5C 652.113,225.952 650.446,219.618 648,213.5C 640.949,207.858 634.282,208.191 628,214.5C 625.882,219.971 624.549,225.638 624,231.5C 623.375,234.612 621.542,236.445 618.5,237C 590.833,237.667 563.167,237.667 535.5,237C 531.835,235.332 529.668,232.499 529,228.5C 528.5,212.503 528.333,196.503 528.5,180.5 Z"/></g>
<g><path style="opacity:1" fill="#5e5e5e" d="M 749.5,181.5 C 751.017,181.511 752.184,182.177 753,183.5C 753.667,194.5 753.667,205.5 753,216.5C 752.311,217.357 751.478,218.023 750.5,218.5C 749.501,206.185 749.168,193.851 749.5,181.5 Z"/></g>
<g><path style="opacity:1" fill="#636363" d="M 524.5,181.5 C 525.83,187.295 526.496,193.462 526.5,200C 526.333,206.167 526.167,212.333 526,218.5C 525.333,217.833 524.667,217.167 524,216.5C 523.189,204.757 523.356,193.091 524.5,181.5 Z"/></g>
<g><path style="opacity:1" fill="#484848" d="M 259.5,182.5 C 262.897,183.568 264.897,185.901 265.5,189.5C 261.362,189.027 259.362,186.693 259.5,182.5 Z"/></g>
<g><path style="opacity:1" fill="#444444" d="M 276.5,182.5 C 277.995,182.415 278.995,183.081 279.5,184.5C 278.167,186.5 276.5,188.167 274.5,189.5C 273.5,189.167 272.833,188.5 272.5,187.5C 274.261,186.083 275.594,184.417 276.5,182.5 Z"/></g>
<g><path style="opacity:1" fill="#3d3d3d" d="M 250.5,185.5 C 253.776,186.122 255.109,188.122 254.5,191.5C 250.262,191.28 248.928,189.28 250.5,185.5 Z"/></g>
<g><path style="opacity:1" fill="#545454" d="M 29.5,191.5 C 32.4542,193.314 32.7875,195.314 30.5,197.5C 29.5344,195.604 29.2011,193.604 29.5,191.5 Z"/></g>
<g><path style="opacity:1" fill="#fe1309" d="M 367.5,194.5 C 372.656,198.914 378.323,202.581 384.5,205.5C 384.928,214.162 385.262,222.829 385.5,231.5C 385.5,234.5 385.5,237.5 385.5,240.5C 382.14,240.384 378.807,240.051 375.5,239.5C 375.737,238.209 375.404,237.209 374.5,236.5C 372.381,222.455 370.048,208.455 367.5,194.5 Z"/></g>
<g><path style="opacity:1" fill="#474747" d="M 262.5,196.5 C 263.5,196.5 264.5,196.5 265.5,196.5C 264.897,200.099 262.897,202.432 259.5,203.5C 259.343,202.127 259.51,200.793 260,199.5C 261.417,198.922 262.25,197.922 262.5,196.5 Z"/></g>
<g><path style="opacity:1" fill="#454545" d="M 273.5,196.5 C 275.716,197.203 277.549,198.536 279,200.5C 279.617,201.449 279.451,202.282 278.5,203C 274.898,202.544 273.231,200.377 273.5,196.5 Z"/></g>
<g><path style="opacity:1" fill="#fe1007" d="M 438.5,195.5 C 436.5,210.837 434.5,226.17 432.5,241.5C 429.609,242.403 426.609,242.736 423.5,242.5C 423.5,240.167 423.5,237.833 423.5,235.5C 424.063,224.773 425.063,214.106 426.5,203.5C 430.772,201.226 434.772,198.559 438.5,195.5 Z"/></g>
<g><path style="opacity:1" fill="#3c3c3c" d="M 31.5,199.5 C 35.0714,199.408 36.2381,201.074 35,204.5C 32.6936,205.582 31.1936,204.748 30.5,202C 30.7432,201.098 31.0766,200.265 31.5,199.5 Z"/></g>
<g><path style="opacity:1" fill="#fefdfc" d="M 426.5,203.5 C 425.063,214.106 424.063,224.773 423.5,235.5C 422.532,237.607 422.198,239.941 422.5,242.5C 418.5,242.5 414.5,242.5 410.5,242.5C 410.5,231.167 410.5,219.833 410.5,208.5C 416.103,207.632 421.436,205.965 426.5,203.5 Z"/></g>
<g><path style="opacity:1" fill="#fefcfb" d="M 384.5,205.5 C 389.356,207.338 394.356,208.672 399.5,209.5C 399.5,217.167 399.5,224.833 399.5,232.5C 399.5,235.833 399.5,239.167 399.5,242.5C 395.19,241.92 390.857,241.586 386.5,241.5C 386.813,237.958 386.479,234.625 385.5,231.5C 385.262,222.829 384.928,214.162 384.5,205.5 Z"/></g>
<g><path style="opacity:1" fill="#3e3d3e" d="M 35.5,207.5 C 39.1507,207.162 40.8174,208.828 40.5,212.5C 36.5,213.167 34.8333,211.5 35.5,207.5 Z"/></g>
<g><path style="opacity:1" fill="#fe0000" d="M 399.5,209.5 C 402.833,209.5 406.167,209.5 409.5,209.5C 409.5,220.5 409.5,231.5 409.5,242.5C 406.5,242.5 403.5,242.5 400.5,242.5C 400.813,238.958 400.479,235.625 399.5,232.5C 399.5,224.833 399.5,217.167 399.5,209.5 Z"/></g>
<g><path style="opacity:1" fill="#fd4433" d="M 251.5,219.5 C 254.32,222.081 257.654,223.914 261.5,225C 266.785,226.026 272.118,226.693 277.5,227C 281.037,228.826 281.371,231.16 278.5,234C 262.81,235.883 249.643,231.049 239,219.5C 236.366,213.728 232.866,208.561 228.5,204C 223.147,200.092 217.147,198.592 210.5,199.5C 218.086,194.223 225.753,194.39 233.5,200C 236.388,203.222 238.888,206.722 241,210.5C 244.098,214.107 247.598,217.107 251.5,219.5 Z"/></g>
<g><path style="opacity:1" fill="#4f4f50" d="M 41.5,213.5 C 45.314,213.651 46.9807,215.651 46.5,219.5C 41.7561,219.772 40.0894,217.772 41.5,213.5 Z"/></g>
<g><path style="opacity:1" fill="#423e3f" d="M 155.5,90.5 C 174.576,102.096 187.076,118.763 193,140.5C 199.589,173.685 190.422,201.518 165.5,224C 171.754,225.315 177.42,224.148 182.5,220.5C 179.997,224.656 176.331,227.323 171.5,228.5C 168.807,228.428 166.14,228.095 163.5,227.5C 161.645,227.34 160.312,228.007 159.5,229.5C 157.804,229.685 156.471,230.519 155.5,232C 163.885,237.472 172.552,237.972 181.5,233.5C 190.245,229.919 196.078,223.586 199,214.5C 199.236,210.661 200.069,206.994 201.5,203.5C 206.099,196.914 212.432,193.247 220.5,192.5C 225.127,192.573 229.46,193.74 233.5,196C 238.589,202.147 243.922,208.147 249.5,214C 260.442,221.256 272.442,223.922 285.5,222C 287.648,219.925 287.982,217.592 286.5,215C 275.063,216.038 264.396,213.705 254.5,208C 250.154,204.133 246.654,199.633 244,194.5C 231.626,183.121 218.126,181.621 203.5,190C 201.627,191.704 199.96,193.537 198.5,195.5C 195.833,197.833 193.167,200.167 190.5,202.5C 198.642,184.765 212.309,178.265 231.5,183C 235.947,184.39 239.947,186.556 243.5,189.5C 247.811,195.279 252.477,200.779 257.5,206C 260.674,207.725 264.007,209.058 267.5,210C 273.833,210.333 280.167,210.667 286.5,211C 287.931,211.465 289.097,212.299 290,213.5C 290.929,217.244 290.429,220.744 288.5,224C 275.597,226.988 263.263,225.488 251.5,219.5C 247.598,217.107 244.098,214.107 241,210.5C 238.888,206.722 236.388,203.222 233.5,200C 225.753,194.39 218.086,194.223 210.5,199.5C 208.871,200.625 207.371,201.959 206,203.5C 203.457,211.329 200.457,218.996 197,226.5C 185.063,239.192 170.896,242.526 154.5,236.5C 153.713,234.896 152.38,234.229 150.5,234.5C 109.941,252.273 75.1072,244.606 46,211.5C 31.9184,191.715 26.5851,169.715 30,145.5C 31.1072,139.003 33.2738,133.003 36.5,127.5C 27.9598,152.92 30.2931,177.253 43.5,200.5C 58.432,225.815 80.7653,239.148 110.5,240.5C 146.151,239.439 171.317,222.772 186,190.5C 191.286,176.42 192.786,162.087 190.5,147.5C 186.592,123.622 174.926,104.622 155.5,90.5 Z"/></g>
<g><path style="opacity:1" fill="#464447" d="M 204.5,215.5 C 206.384,215.712 207.717,216.712 208.5,218.5C 205.581,219.932 204.248,218.932 204.5,215.5 Z"/></g>
<g><path style="opacity:1" fill="#403938" d="M 122.5,186.5 C 136.985,193.803 140.151,204.47 132,218.5C 122.676,226.969 112.843,227.636 102.5,220.5C 94.2786,210.087 94.6119,199.92 103.5,190C 109.225,185.634 115.558,184.467 122.5,186.5 Z"/></g>
<g><path style="opacity:1" fill="#ec5141" d="M 130.5,197.5 C 135.42,207.231 133.086,215.065 123.5,221C 120.937,222.079 118.271,222.579 115.5,222.5C 127.37,218.445 132.37,210.112 130.5,197.5 Z"/></g>
<g><path style="opacity:1" fill="#4e4e4e" d="M 215.5,215.5 C 219.208,216.551 219.041,217.884 215,219.5C 214.5,219.167 214,218.833 213.5,218.5C 214.193,217.482 214.859,216.482 215.5,215.5 Z"/></g>
<g><path style="opacity:1" fill="#f7efed" d="M 201.5,203.5 C 200.069,206.994 199.236,210.661 199,214.5C 196.078,223.586 190.245,229.919 181.5,233.5C 184.472,231.359 186.972,228.692 189,225.5C 191.667,219.5 194.333,213.5 197,207.5C 198.371,205.959 199.871,204.625 201.5,203.5 Z"/></g>
<g><path style="opacity:1" fill="#fb4432" d="M 220.5,192.5 C 212.432,193.247 206.099,196.914 201.5,203.5C 199.871,204.625 198.371,205.959 197,207.5C 194.333,213.5 191.667,219.5 189,225.5C 186.972,228.692 184.472,231.359 181.5,233.5C 172.552,237.972 163.885,237.472 155.5,232C 156.471,230.519 157.804,229.685 159.5,229.5C 163.7,230.849 167.7,230.516 171.5,228.5C 176.331,227.323 179.997,224.656 182.5,220.5C 184.971,214.422 187.638,208.422 190.5,202.5C 193.167,200.167 195.833,197.833 198.5,195.5C 205.57,191.655 212.903,190.655 220.5,192.5 Z"/></g>
<g><path style="opacity:1" fill="#fcfbfb" d="M 130.5,197.5 C 132.37,210.112 127.37,218.445 115.5,222.5C 105.834,220.666 100.501,214.833 99.5,205C 102.635,191.262 110.968,186.596 124.5,191C 127.386,192.385 129.386,194.551 130.5,197.5 Z"/></g>
<g><path style="opacity:1" fill="#f6f6f6" d="M 220.5,192.5 C 212.903,190.655 205.57,191.655 198.5,195.5C 199.96,193.537 201.627,191.704 203.5,190C 218.126,181.621 231.626,183.121 244,194.5C 246.654,199.633 250.154,204.133 254.5,208C 264.396,213.705 275.063,216.038 286.5,215C 287.982,217.592 287.648,219.925 285.5,222C 272.442,223.922 260.442,221.256 249.5,214C 243.922,208.147 238.589,202.147 233.5,196C 229.46,193.74 225.127,192.573 220.5,192.5 Z"/></g>
<g><path style="opacity:1" fill="#f7f2f1" d="M 122.5,186.5 C 115.558,184.467 109.225,185.634 103.5,190C 94.6119,199.92 94.2786,210.087 102.5,220.5C 93.8629,216.23 90.1963,209.23 91.5,199.5C 93.0213,196.275 94.3546,192.942 95.5,189.5C 103.742,181.443 112.742,180.443 122.5,186.5 Z"/></g>
<g><path style="opacity:1" fill="#f3e8e5" d="M 143.5,161.5 C 132.729,169.456 130.562,179.456 137,191.5C 140.15,195.311 143.983,197.977 148.5,199.5C 139.526,198.763 133.692,194.096 131,185.5C 128.8,176.961 130.967,169.795 137.5,164C 139.407,162.878 141.407,162.045 143.5,161.5 Z"/></g>
<g><path style="opacity:1" fill="#403c3c" d="M 90.5,173.5 C 94.1325,178.164 95.7992,183.498 95.5,189.5C 94.3546,192.942 93.0213,196.275 91.5,199.5C 79.6485,209.47 68.4819,208.803 58,197.5C 57.2564,195.1 56.4231,192.767 55.5,190.5C 54.6651,176.84 60.9984,168.84 74.5,166.5C 80.8441,166.675 86.1774,169.009 90.5,173.5 Z"/></g>
<g><path style="opacity:1" fill="#f84a39" d="M 91.5,185.5 C 90.5704,199.255 83.237,205.088 69.5,203C 67.2528,201.723 65.2528,200.223 63.5,198.5C 76.8149,202.171 86.1482,197.838 91.5,185.5 Z"/></g>
<g><path style="opacity:1" fill="#fcfbfb" d="M 91.5,185.5 C 86.1482,197.838 76.8149,202.171 63.5,198.5C 57.4673,191.67 56.9673,184.337 62,176.5C 68.5677,169.923 76.0677,168.756 84.5,173C 88.8236,176.155 91.1569,180.322 91.5,185.5 Z"/></g>
<g><path style="opacity:1" fill="#453e3e" d="M 164.5,166.5 C 152.589,159.524 143.422,162.191 137,174.5C 135.339,186.669 140.505,194.002 152.5,196.5C 160.536,195.665 166.203,191.665 169.5,184.5C 167.899,191.61 163.565,196.444 156.5,199C 153.854,199.497 151.187,199.664 148.5,199.5C 143.983,197.977 140.15,195.311 137,191.5C 130.562,179.456 132.729,169.456 143.5,161.5C 143.918,160.778 144.584,160.278 145.5,160C 153.06,158.908 159.393,161.075 164.5,166.5 Z"/></g>
<g><path style="opacity:1" fill="#faf9fa" d="M 164.5,166.5 C 166.223,168.253 167.723,170.253 169,172.5C 169.499,176.486 169.666,180.486 169.5,184.5C 166.203,191.665 160.536,195.665 152.5,196.5C 140.505,194.002 135.339,186.669 137,174.5C 143.422,162.191 152.589,159.524 164.5,166.5 Z"/></g>
<g><path style="opacity:1" fill="#f8f2f1" d="M 78.5,160.5 C 84.5592,162.894 88.5592,167.227 90.5,173.5C 86.1774,169.009 80.8441,166.675 74.5,166.5C 60.9984,168.84 54.6651,176.84 55.5,190.5C 49.4881,180.755 50.8214,171.921 59.5,164C 61.0779,162.906 62.7446,162.072 64.5,161.5C 69.2303,161.717 73.8969,161.383 78.5,160.5 Z"/></g>
<g><path style="opacity:1" fill="#f64938" d="M 54.5,145.5 C 55.9335,146.833 57.2668,148.333 58.5,150C 67.6482,156.03 76.6482,155.863 85.5,149.5C 81.1233,157.249 74.4567,160.083 65.5,158C 59.8561,155.526 56.1895,151.359 54.5,145.5 Z"/></g>
<g><path style="opacity:1" fill="#fbfafa" d="M 122.5,164.5 C 118.911,170.592 113.578,172.592 106.5,170.5C 101.442,166.068 100.276,160.734 103,154.5C 107.546,150.251 112.713,149.418 118.5,152C 122.039,155.387 123.372,159.553 122.5,164.5 Z"/></g>
<g><path style="opacity:1" fill="#484345" d="M 123.5,151.5 C 126.148,155.98 125.815,160.313 122.5,164.5C 123.372,159.553 122.039,155.387 118.5,152C 112.713,149.418 107.546,150.251 103,154.5C 100.276,160.734 101.442,166.068 106.5,170.5C 101.856,169.189 98.8558,166.189 97.5,161.5C 98.7689,150.707 104.769,145.874 115.5,147C 118.648,147.738 121.315,149.238 123.5,151.5 Z"/></g>
<g><path style="opacity:1" fill="#f9e9e6" d="M 123.5,151.5 C 121.315,149.238 118.648,147.738 115.5,147C 104.769,145.874 98.7689,150.707 97.5,161.5C 95.5827,153.819 98.2494,147.986 105.5,144C 113.696,141.774 119.696,144.274 123.5,151.5 Z"/></g>
<g><path style="opacity:1" fill="#f3e6e4" d="M 190.5,147.5 C 192.786,162.087 191.286,176.42 186,190.5C 171.317,222.772 146.151,239.439 110.5,240.5C 80.7653,239.148 58.432,225.815 43.5,200.5C 68.6358,234.265 101.302,244.431 141.5,231C 176.385,214.236 192.719,186.402 190.5,147.5 Z"/></g>
<g><path style="opacity:1" fill="#525252" d="M 206.5,224.5 C 209.047,226.29 208.714,227.956 205.5,229.5C 204.348,227.603 204.681,225.936 206.5,224.5 Z"/></g>
<g><path style="opacity:1" fill="#555555" d="M 213.5,224.5 C 215.729,225.055 217.395,226.389 218.5,228.5C 215.294,229.579 213.627,228.246 213.5,224.5 Z"/></g>
<g><path style="opacity:1" fill="#f4e1df" d="M 171.5,228.5 C 167.7,230.516 163.7,230.849 159.5,229.5C 160.312,228.007 161.645,227.34 163.5,227.5C 166.14,228.095 168.807,228.428 171.5,228.5 Z"/></g>
<g><path style="opacity:1" fill="#232a32" d="M 544.5,187.5 C 568.59,187.02 592.59,187.52 616.5,189C 618.726,190.62 620.06,192.786 620.5,195.5C 618.315,206.261 615.815,216.928 613,227.5C 612.097,228.701 610.931,229.535 609.5,230C 587.078,230.978 564.745,230.645 542.5,229C 541.54,227.581 540.707,226.081 540,224.5C 539.333,213.833 539.333,203.167 540,192.5C 541.707,190.963 543.207,189.296 544.5,187.5 Z"/></g>
<g><path style="opacity:1" fill="#0cb3ec" d="M 545.5,189.5 C 568.924,189.02 592.257,189.52 615.5,191C 617.594,192.255 618.594,194.088 618.5,196.5C 616.333,206.171 614.166,215.837 612,225.5C 611.167,226.333 610.333,227.167 609.5,228C 587.833,228.667 566.167,228.667 544.5,228C 543.667,227.167 542.833,226.333 542,225.5C 541.333,214.5 541.333,203.5 542,192.5C 543.145,191.364 544.312,190.364 545.5,189.5 Z"/></g>
<g><path style="opacity:1" fill="#86d4f7" d="M 547.5,191.5 C 558.748,191.179 569.915,191.513 581,192.5C 581.667,194.5 581.667,196.5 581,198.5C 578.21,207.841 575.043,217.008 571.5,226C 563.5,226.667 555.5,226.667 547.5,226C 546.584,225.626 545.75,225.126 545,224.5C 543.416,215.242 543.083,205.909 544,196.5C 544.997,194.677 546.164,193.01 547.5,191.5 Z"/></g>
<g><path style="opacity:1" fill="#3c2427" d="M 733.5,191.5 C 735.017,191.511 736.184,192.177 737,193.5C 737.667,203.833 737.667,214.167 737,224.5C 736.261,227.573 734.428,229.74 731.5,231C 710.167,231.667 688.833,231.667 667.5,231C 665,229.833 663.167,228 662,225.5C 660.596,215.743 658.763,206.076 656.5,196.5C 656.549,192.896 658.216,190.396 661.5,189C 684.833,188.333 708.167,188.333 731.5,189C 732.381,189.708 733.047,190.542 733.5,191.5 Z"/></g>
<g><path style="opacity:1" fill="#ff929f" d="M 703.5,192.5 C 703.982,193.416 704.315,194.416 704.5,195.5C 701.51,205.126 698.677,214.793 696,224.5C 694.961,225.71 693.794,226.71 692.5,227.5C 684.826,227.666 677.159,227.5 669.5,227C 668.333,225.833 667.167,224.667 666,223.5C 663.788,214.234 662.454,204.901 662,195.5C 662.833,194.667 663.667,193.833 664.5,193C 677.496,192.5 690.496,192.333 703.5,192.5 Z"/></g>
<g><path style="opacity:1" fill="#fe3357" d="M 731.5,191.5 C 732.167,191.5 732.833,191.5 733.5,191.5C 733.987,192.473 734.487,193.473 735,194.5C 735.667,204.5 735.667,214.5 735,224.5C 734.252,226.751 732.752,228.084 730.5,228.5C 717.656,228.829 704.989,228.495 692.5,227.5C 693.794,226.71 694.961,225.71 696,224.5C 698.677,214.793 701.51,205.126 704.5,195.5C 704.315,194.416 703.982,193.416 703.5,192.5C 712.652,191.506 721.985,191.173 731.5,191.5 Z"/></g>
<g><path style="opacity:1" fill="#f5435e" d="M 731.5,191.5 C 721.985,191.173 712.652,191.506 703.5,192.5C 690.496,192.333 677.496,192.5 664.5,193C 663.667,193.833 662.833,194.667 662,195.5C 662.454,204.901 663.788,214.234 666,223.5C 667.167,224.667 668.333,225.833 669.5,227C 677.159,227.5 684.826,227.666 692.5,227.5C 704.989,228.495 717.656,228.829 730.5,228.5C 709.671,229.663 688.671,229.829 667.5,229C 666.333,227.833 665.167,226.667 664,225.5C 662.486,215.765 660.653,206.098 658.5,196.5C 658.406,194.088 659.406,192.255 661.5,191C 685.004,190.17 708.337,190.337 731.5,191.5 Z"/></g>
<g><path style="opacity:1" fill="#e3715f" d="M 150.5,234.5 C 152.38,234.229 153.713,234.896 154.5,236.5C 152.847,236.34 151.514,235.674 150.5,234.5 Z"/></g>
<g><path style="opacity:1" fill="#cdc6c6" d="M 360.5,222.5 C 362.197,227.075 364.197,231.575 366.5,236C 368.588,237.03 370.755,237.863 373,238.5C 374.03,238.164 374.53,237.497 374.5,236.5C 375.404,237.209 375.737,238.209 375.5,239.5C 376.275,244.484 376.942,249.484 377.5,254.5C 373.21,254.802 369.21,254.136 365.5,252.5C 366.586,252.38 367.253,251.713 367.5,250.5C 364.848,241.226 362.515,231.892 360.5,222.5 Z"/></g>
<g><path style="opacity:1" fill="#dd130b" d="M 446.5,237.5 C 446.5,238.833 446.5,240.167 446.5,241.5C 450.833,240.833 455.167,240.167 459.5,239.5C 459.832,249.024 455.166,253.69 445.5,253.5C 444.275,252.848 443.608,251.681 443.5,250C 444.031,247.183 444.364,244.35 444.5,241.5C 445.167,240.167 445.833,238.833 446.5,237.5 Z"/></g>
<g><path style="opacity:1" fill="#df1b11" d="M 385.5,231.5 C 386.479,234.625 386.813,237.958 386.5,241.5C 387.052,244.116 387.386,246.783 387.5,249.5C 387.461,251.952 386.794,253.952 385.5,255.5C 382.615,255.806 379.948,255.473 377.5,254.5C 376.942,249.484 376.275,244.484 375.5,239.5C 378.807,240.051 382.14,240.384 385.5,240.5C 385.5,237.5 385.5,234.5 385.5,231.5 Z"/></g>
<g><path style="opacity:1" fill="#cfc1c0" d="M 399.5,232.5 C 400.479,235.625 400.813,238.958 400.5,242.5C 400.5,247.167 400.5,251.833 400.5,256.5C 395.305,256.821 390.305,256.487 385.5,255.5C 386.794,253.952 387.461,251.952 387.5,249.5C 387.386,246.783 387.052,244.116 386.5,241.5C 390.857,241.586 395.19,241.92 399.5,242.5C 399.5,239.167 399.5,235.833 399.5,232.5 Z"/></g>
<g><path style="opacity:1" fill="#dd180e" d="M 423.5,235.5 C 423.5,237.833 423.5,240.167 423.5,242.5C 426.609,242.736 429.609,242.403 432.5,241.5C 432.5,241.833 432.5,242.167 432.5,242.5C 431.093,246.683 430.426,251.016 430.5,255.5C 428.585,255.216 426.919,255.549 425.5,256.5C 424.167,256.5 422.833,256.5 421.5,256.5C 421.54,251.807 421.873,247.141 422.5,242.5C 422.198,239.941 422.532,237.607 423.5,235.5 Z"/></g>
<g><path style="opacity:1" fill="#cdc5c4" d="M 444.5,241.5 C 444.364,244.35 444.031,247.183 443.5,250C 443.608,251.681 444.275,252.848 445.5,253.5C 439.011,254.863 432.344,255.863 425.5,256.5C 426.919,255.549 428.585,255.216 430.5,255.5C 430.426,251.016 431.093,246.683 432.5,242.5C 436.548,242.605 440.548,242.272 444.5,241.5 Z"/></g>
<g><path style="opacity:1" fill="#dc0202" d="M 400.5,242.5 C 403.5,242.5 406.5,242.5 409.5,242.5C 409.5,247.167 409.5,251.833 409.5,256.5C 406.5,256.5 403.5,256.5 400.5,256.5C 400.5,251.833 400.5,247.167 400.5,242.5 Z"/></g>
<g><path style="opacity:1" fill="#d1c6c6" d="M 410.5,208.5 C 410.5,219.833 410.5,231.167 410.5,242.5C 414.5,242.5 418.5,242.5 422.5,242.5C 421.873,247.141 421.54,251.807 421.5,256.5C 417.5,256.5 413.5,256.5 409.5,256.5C 409.5,251.833 409.5,247.167 409.5,242.5C 409.5,231.5 409.5,220.5 409.5,209.5C 409.5,208.833 409.833,208.5 410.5,208.5 Z"/></g>
<g><path style="opacity:1" fill="#454545" d="M 85.5,243.5 C 88.0161,244.6 89.0161,246.267 88.5,248.5C 85.922,247.358 84.922,245.691 85.5,243.5 Z"/></g>
<g><path style="opacity:1" fill="#434144" d="M 96.5,243.5 C 97.7562,243.461 98.7562,243.961 99.5,245C 94.8759,249.859 93.8759,249.359 96.5,243.5 Z"/></g>
<g><path style="opacity:1" fill="#4c4c4c" d="M 87.5,253.5 C 88.3764,253.369 89.0431,253.702 89.5,254.5C 88.5197,255.981 87.353,257.315 86,258.5C 85.3076,257.975 84.8076,257.308 84.5,256.5C 85.7701,255.712 86.7701,254.712 87.5,253.5 Z"/></g>
<g><path style="opacity:1" fill="#434343" d="M 94.5,253.5 C 96.5441,254.031 98.2107,255.198 99.5,257C 99,257.5 98.5,258 98,258.5C 96.1978,257.211 95.0312,255.544 94.5,253.5 Z"/></g>
</svg>
